<?xml version="1.0" encoding="utf-8"?>
<!-- Generator: Adobe Illustrator 17.0.0, SVG Export Plug-In . SVG Version: 6.00 Build 0)  -->
<!DOCTYPE svg PUBLIC "-//W3C//DTD SVG 1.1//EN" "http://www.w3.org/Graphics/SVG/1.1/DTD/svg11.dtd">
<svg version="1.1" id="Слой_1" xmlns="http://www.w3.org/2000/svg" xmlns:xlink="http://www.w3.org/1999/xlink" x="0px" y="0px"
	 width="105.77px" height="78.048px" viewBox="0 0 105.77 78.048" enable-background="new 0 0 105.77 78.048" xml:space="preserve">
<g>
	<defs>
		<rect id="SVGID_1_" y="0" width="105.77" height="78.048"/>
	</defs>
	<clipPath id="SVGID_2_">
		<use xlink:href="#SVGID_1_"  overflow="visible"/>
	</clipPath>
	<path clip-path="url(#SVGID_2_)" fill="#009DD8" d="M0,31.569c1.005,5.956,12.454,8.128,21.481,2.621
		C11.327,42.691,1.867,42.464,0,39.778V31.569z"/>
	<path clip-path="url(#SVGID_2_)" fill="#009DD8" d="M0,22.918c4.103,9.335,17.715,12.174,27.391,6.058
		C16.332,39.035,1.487,35.817,0,29.546V22.918z"/>
	<path clip-path="url(#SVGID_2_)" fill="#009DD8" d="M0,1.816c4.156,23.942,20.439,31.69,33.028,21.38
		C19.715,37.407,1.995,27.823,0,19.796V1.816z"/>
	<path clip-path="url(#SVGID_2_)" fill="#9D9FA2" d="M38.791,44.521c-3.796,0-7.28,2.4-9.139,4.122
		c-0.454,0.424-1.291,1.269-1.674,2.053c0,0,0.145-1.613,0.905-2.745l0.002-3.059h-5.989v32.165h5.989v-24.9
		c1.306-1.649,4.057-3.578,6.946-3.578c6.056,0,7.294,4.196,7.294,7.981v20.497h5.848V54.085
		C48.973,47.96,43.952,44.521,38.791,44.521"/>
	<path clip-path="url(#SVGID_2_)" fill="#9D9FA2" d="M67.809,75.363c-5.231,0-7.019-3.235-7.019-3.235V51.057
		c1.859-2.268,4.608-2.819,6.812-2.819c3.922,0,9.288,2.981,9.288,12.818C76.89,71.924,71.179,75.363,67.809,75.363 M70.217,44.522
		c-3.78,0-6.164,1.177-8.608,3.218c-0.442,0.411-1.319,1.283-1.713,2.091c0,0,0.348-1.842,0.894-2.888V30.24h-6.139l0.014,43.815
		c0.826,0.413,6.672,3.993,12.177,3.993c11.011,0,16.516-8.874,16.516-17.265C83.358,53.626,78.816,44.522,70.217,44.522"/>
	<path clip-path="url(#SVGID_2_)" fill="#9D9FA2" d="M105.77,33.098c0,0-0.096-0.212-0.855-0.864
		c-0.73-0.631-1.292-0.992-1.292-0.992c-1.843-1.14-3.713-1.582-5.984-1.582c-6.674,0-9.425,4.679-9.425,10.045v5.78v2.614v28.959
		h5.846V48.963h5.757v-3.478h-5.566c-0.588,0.027-1.861,0.127-2.698,0.495c0,0,1.156-1.205,2.507-1.587v-5.376
		c0-1.927,0.208-5.686,4.746-5.686c2.046,0,4.062,1.325,4.817,2.637v-0.027L105.77,33.098z"/>
	<path clip-path="url(#SVGID_2_)" fill="#9D9FA2" d="M19.677,12.461c9.678-6.121,23.286-3.282,27.394,6.056v-6.626
		C45.588,5.613,30.738,2.395,19.677,12.461 M25.586,7.238c9.031-5.5,20.475-3.333,21.485,2.626v-8.21
		C45.206-1.031,35.751-1.259,25.586,7.238 M14.046,18.235C26.63,7.923,42.912,15.673,47.071,39.617V21.639
		C45.075,13.609,27.358,4.025,14.046,18.235"/>
</g>
</svg>
